# xmcd CD database file generated by OrangeCD 5.2
#
# Track frame offsets:
#	150
#	10702
#	20795
#	36315
#	52260
#	61347
#	71617
#	86950
#	101657
#	107322
#	125762
#	133162
#	149127
#	161635
#	174517
#	189095
#
# Disc length: 2698 seconds
#
# Revision: 0
# Processed by: cddbd v1.5PL3 Copyright (c) Steve Scherf et al.
# Submitted via: OrangeCD 5.2
#
DISCID=ec0a8810
DTITLE=Old Time Gospel Strings - Old Time Gospel Strings
DYEAR=1995
DGENRE=Bluegrass
TTITLE0=Just Over In the Gloryland
TTITLE1=Good-by, World, Good-by 
TTITLE2=What a Beautiful Day
TTITLE3=Just As I Am
TTITLE4=Where The Soul Never Dies
TTITLE5=I Love To Tell The Story
TTITLE6=Gospel Bro
TTITLE7=There's Just Something About That Name
TTITLE8=On Fire
TTITLE9=If That Isn't Love
TTITLE10=I Fell Like Traveling On
TTITLE11=Steel Heaven
TTITLE12=Thank You Lord, For Your Blessings
TTITLE13=The Lighthouse
TTITLE14=Amazing Grace
TTITLE15=Jesus Love Me
EXTD=
EXTT0=
EXTT1=
EXTT2=
EXTT3=
EXTT4=
EXTT5=
EXTT6=
EXTT7=
EXTT8=
EXTT9=
EXTT10=
EXTT11=
EXTT12=
EXTT13=
EXTT14=
EXTT15=
PLAYORDER=
